Patient4_TMGait_0pt4_01_left_42_EMG.mot
version=1
nRows=23
nColumns=33
inDegrees=no
endheader
time	1LAddLong	2LGlutMax	3LGlutMed	4LIliopsoas	5LSemiMemb	6LBicFemLong	7LRecFem	8LVastMed	9LVastLat	10LGasMed	11LTibAnt	12lTibPost	13LPeroneusLong	14LSol	15LExtDigLong	16LFlexDigLong	17RAddLong	18RGlutMax	19RGlutMed	20RIliopsoas	21RSemiMemb	22RBicFemLong	23RRecFem	24RVastMed	25RVastLat	26RGasMed	27RTibAnt	28RTibPost	29RPeroneusLong	30RSol	31RExtDigLong	32RFlexDigLong
54.183	0.008392	-0.052795	-0.04303	0.023346	0.01709	-0.003357	0.002136	0.005951	0.11887	-0.063782	-0.069885	-0.005341	0.002289	-0.019989	-0.08606	0.001068	0.004883	0.10986	-0.21896	0.086975	-0.070496	-0.006409	-0.019531	-0.14374	0.007629	0.027008	1.0536	0.004425	0.29923	-0.24399	-0.003052	0.003357
54.184	0.019226	-0.05127	-0.017853	-0.004425	0.007324	0.013885	0.002289	0.008698	0.10452	-0.073395	0.079346	-0.005341	-0.045624	-0.01358	-0.043793	0.005798	-0.017242	0.098572	-0.21652	0.049133	-0.080566	-0.008545	-0.29999	-0.33905	0.088959	0.019226	0.52826	0.002747	0.018005	-0.32105	-0.005951	-0.000916
54.185	0.014954	-0.041199	-0.015411	-0.016327	0.016022	0.027771	-0.012665	-0.002289	0.099792	-0.059814	0.036469	0.004578	-0.050964	-0.025482	-0.028992	-0.003967	-0.006104	0.13458	-0.30136	-0.021667	-0.046387	0.018005	-0.1796	-0.33524	0.022125	0.012512	-0.62607	0.005646	-0.021515	-0.20874	-0.003357	-0.010681
54.186	0.0177	-0.039825	-0.031128	-0.009766	0.002289	0.02594	0.002747	0.015106	0.091248	0.001373	-0.01709	-0.002747	-0.036011	-0.012512	0.001526	0.003357	0.001831	0.13016	-0.39047	-0.074921	-0.016632	0.046082	0.00351	-0.31982	-0.11643	0.012054	-0.34668	0.004883	0.34836	-0.12772	-0.003052	-0.001831
54.187	0.011292	-0.013885	-0.051117	-0.001831	0.002136	0.024872	-0.015259	0.016937	0.077209	-0.00473	-0.026245	-0.004578	-0.019531	0.066223	0.010223	0.00351	-0.009155	0.20645	-0.088348	-0.017548	0.033875	0.027771	0.022736	-0.29892	-0.12558	0.018921	0.64712	0.006256	0.74814	-0.087128	-0.002289	-0.011902
54.188	0.016937	-0.049591	0.013733	0.002747	-0.00885	0.033875	-0.018463	0.010529	0.065613	-0.011292	0.051727	-0.001678	-0.025635	0.032806	0.025024	0.003357	-0.00824	0.19272	0.1831	0.041504	0.025635	0.010071	-0.26535	-0.080261	0.018311	0.001373	0.52826	0.002136	0.049896	0.17258	0.001373	-0.015411
54.189	0.013428	-0.077972	0.004272	0.035858	-0.012665	0.022888	-0.018158	0.018463	0.063171	-0.026855	0.078888	-0.014954	-0.037537	0.005188	0.052032	0.01236	-0.02655	0.13214	0.26764	-0.034027	0.007477	0.019073	-0.43579	0.13458	0.14496	-0.008698	0.57495	0.000916	-0.18082	0.32272	-0.002441	-0.016479
54.19	0.014343	-0.10376	0.024414	0.006866	0.004883	0.045319	-0.015411	0.00885	0.058746	0.009003	-0.005035	-0.002289	-0.033569	0.016327	0.034943	-0.008087	-0.022278	0.10544	-0.1619	-0.10208	0.003357	0.010529	-0.24384	0.14908	0.21606	-0.016632	0.61127	-0.002136	-0.19775	0.50064	-0.002289	-0.01358
54.191	0.012207	-0.076599	0.011444	0.002136	-0.000305	0.055847	-0.0177	0.01297	0.06485	-0.030365	0.021667	-0.011902	-0.034485	-0.014343	0.012207	0.004272	-0.019836	0.12161	-0.067902	-0.092621	-0.022278	-0.006104	-0.034943	0.10635	0.20844	-0.007324	0.91095	0.002136	-0.086365	0.31952	-0.00473	-0.011902
54.192	0.011139	-0.072632	0.007477	0.005493	-0.013428	0.064545	-0.03067	0.01709	0.063171	-0.022278	0.021362	-0.00412	-0.036926	0.000153	-0.011902	0.003967	-0.02533	0.14999	0.24353	-0.010223	-0.019684	-0.02121	0.059052	0.00351	0.17975	-0.007324	0.1062	0.006409	0.2298	0.04837	-0.002289	-0.007019
54.193	0.007782	-0.08667	-0.029297	0.012054	-0.011139	0.067444	-0.019684	0.007935	0.074615	-0.021667	0.019836	0.003967	-0.043488	-0.005341	-0.018311	0.004272	-0.007782	0.14832	0.045471	0.11139	-0.013885	-0.029755	0.011597	-0.10971	0.38238	0.007019	-1.0596	0.007324	0.39185	0.015411	-0.003357	-0.006104
54.194	0.005646	-0.084229	-0.045319	0.007629	-0.070343	0.035095	-0.038452	0.014648	0.091858	-0.029144	0.016937	-0.002899	-0.056458	-0.018005	-0.011902	0.014343	-0.007629	0.13336	-0.26047	0.14069	-0.006256	-0.000458	-0.055847	-0.13428	0.30106	0.007782	-0.41153	0.001221	-0.28854	0.054016	-0.001068	0.003204
54.195	0.005035	-0.06485	-0.025177	0.001221	-0.062866	0.021362	-0.036163	0.006104	0.074768	-0.023956	0.022736	0.001526	-0.047913	-0.001526	-0.005341	0.000153	-0.014038	0.13412	-0.22446	0.11246	-0.021057	-0.00061	-0.13016	-0.06546	0.23666	0.010986	-0.17456	0.008545	-0.54062	0.016632	-0.001678	-0.002136
54.196	0.020905	-0.10254	-0.027618	0.00412	-0.079803	0.020447	-0.037689	0.009918	0.063782	-0.038452	0.014191	0.001221	-0.0177	-0.012665	0.002594	-0.000458	-0.03067	0.10727	0.031738	0.05722	-0.022125	0.00946	-0.032196	-0.037842	0.30807	0.004578	-0.33386	0.000153	-0.36331	-0.039825	-0.003967	-0.005341
54.197	0.022278	-0.078888	-0.010223	0.005035	0.007324	-0.049438	-0.023193	0.017548	0.043945	-0.071716	0.012665	-0.01297	-0.033569	-0.014648	0.00946	0.004578	-0.015259	0.076447	0.44311	-0.068665	0.020599	-0.010681	0.2153	-0.000305	0.23331	-0.005188	-0.35965	0.000458	-0.96909	-0.036469	-0.008392	-0.014038
54.198	0.020752	-0.063019	-0.015411	0.00946	0.088654	-0.014343	-0.021057	0.013123	0.036621	-0.028687	0.013428	0.00473	-0.027771	-0.030212	0.00351	0.000458	-0.016785	0.12833	0.90591	-0.084076	0.025024	-0.006409	0.22156	-0.002289	-0.13901	-0.007782	-0.098724	0.001526	0.55557	0.088196	-0.001984	-0.019684
54.199	0.015717	-0.063629	-0.059357	-0.002441	0.067291	0.046997	-0.033722	0.012207	0.018311	-0.013733	0.00946	0.001831	-0.043488	-0.021362	0.004578	0.001068	-0.015564	0.08194	-0.018463	0.015411	0.019073	-0.008545	0.34454	0.053864	-0.47745	0.009155	0.059509	0.003052	0.49286	0.08316	-0.000305	-0.014954
54.2	0.019379	-0.061646	-0.099487	-0.011292	0.004578	0.053253	-0.037842	0.005798	0.026245	-0.010223	0.010376	0.004578	-0.049438	-0.0177	0.011444	0.003357	-0.021057	0.028534	-0.49133	0.024872	0.007935	0.016022	0.39078	0.004272	-0.71762	0.027466	0.14938	0.005188	0.42435	-0.030212	-0.002136	-0.003815
54.201	0.016632	-0.031433	-0.061493	-0.011597	0.007324	0.040894	-0.046234	0.009308	0.031891	-0.02594	0.002441	0.003357	-0.054779	-0.017242	-0.005798	0.004425	-0.026703	0.069275	-0.3833	0.033875	0.011444	0.040741	0.29312	-0.085144	-0.52887	0.029144	0.04776	0.000763	-0.89768	-0.029602	-0.007324	-0.00824
54.202	0.012512	-0.063019	-0.025635	-0.001221	-0.046844	-0.028992	-0.031586	0.013123	0.025635	-0.016327	-0.013275	-0.003357	-0.06073	-0.028839	-0.011902	-0.005188	-0.023499	-0.00473	-0.66208	0.020599	0.016479	0.047302	-0.31982	-0.053558	-0.24475	0.009155	-0.19928	-0.001526	-1.8971	-0.099792	-0.006409	-0.006409
54.203	0.007629	-0.068665	-0.002747	-0.011597	-0.014648	-0.032501	-0.022888	0.001221	0.026093	-0.032349	-0.039673	0.001526	-0.052032	-0.020142	-0.014038	0.001373	-0.035095	0.025024	-0.45364	-0.054016	0.01236	0.027771	-0.49835	0.000153	0.27237	0.003967	-0.12619	-0.005341	0.60806	-0.19562	-0.00061	-0.007629
54.204	0.005493	-0.054169	-0.040894	0.00946	-0.013275	-0.012817	-0.010529	0.016174	0.026398	-0.016785	-0.012817	-0.000763	-0.072632	-0.024414	-0.007629	-0.00473	-0.048218	0.082703	0.3067	-0.14908	0.031128	-0.0383	-0.049744	-0.036316	0.47867	-0.016785	0.037537	-0.002899	0.81726	-0.017548	-0.001984	-0.011597
54.205	0.003662	-0.061646	-0.045929	0.015106	-0.032501	0.00351	-0.024872	0.031738	0.031128	-0.045624	0.038452	-0.003662	-0.043335	-0.030212	0.005035	-0.009155	-0.027924	0.068665	0.6102	-0.21301	0.013275	-0.025024	0.1268	-0.12192	0.29907	-0.003052	-0.36041	-0.002747	1.0031	0.009003	-0.001678	-0.004578
